<svg width="1201" height="288" viewBox="0 0 1201 288" fill="none" xmlns="http://www.w3.org/2000/svg">
<path fill-rule="evenodd" clip-rule="evenodd" d="M0.235352 180L50.2354 198C100.235 216 200.235 252 300.235 216C400.235 180 500.235 72 600.235 66C700.235 60 800.235 156 900.235 162C1000.24 168 1100.24 84 1150.24 42L1200.24 0V288H1150.24C1100.24 288 1000.24 288 900.235 288C800.235 288 700.235 288 600.235 288C500.235 288 400.235 288 300.235 288C200.235 288 100.235 288 50.2354 288H0.235352V180Z" fill="#C2FFA7"/>
</svg>
